# xmcd
#
# Track frame offsets: 
#        150
#        15904
#        35512
#        55024
#        68183
#        82118
#        114830
#        132984
#        146637
#        166908
#        180757
#        202079
#        217203
#        240218
#
# Disc length: 3717 seconds
#
# Revision: 6
# Processed by: cddbd v1.5.2PL0 Copyright (c) Steve Scherf et al.
# Submitted via: ExactAudioCopyFreeDBPlugin 1.0
#
DISCID=b90e830e
DTITLE=EMMYLOU HARRIS - Spyboy (Live)
DYEAR=1998
DGENRE=Country
TTITLE0=My Songbird  [live]
TTITLE1=Where Will I Be  [live]
TTITLE2=I Ain't Living Long Like This  [live]
TTITLE3=Love Hurts  [live]
TTITLE4=Green Pastures  [live]
TTITLE5=Deeper Well  [live]
TTITLE6=Prayer In Open D  [live]
TTITLE7=Calling My Children Home  [live]
TTITLE8=Tulsa Queen  [live]
TTITLE9=Wheels  [live]
TTITLE10=Born To Run  [live]
TTITLE11=Boulder To Birmingham  [live]
TTITLE12=All My Tears  [live]
TTITLE13=The Maker  [live]
EXTD=YEAR: 1998
EXTT0=
EXTT1=
EXTT2=
EXTT3=
EXTT4=
EXTT5=
EXTT6=
EXTT7=
EXTT8=
EXTT9=
EXTT10=
EXTT11=
EXTT12=
EXTT13=
PLAYORDER=
